<?xml version="1.0" encoding="UTF-8" standalone="no"?>
<!-- Created with Inkscape (http://www.inkscape.org/) -->

<svg
   version="1.1"
   id="svg1"
   width="3000"
   height="2000"
   viewBox="0 0 3000 2000"
   xmlns="http://www.w3.org/2000/svg"
   xmlns:svg="http://www.w3.org/2000/svg">
  <defs
     id="defs1" />
  <g
     id="g1">
    <g
       id="g3">
      <path
         style="fill:#e38d01"
         d="m 2032.3224,1514.4749 -30.1777,-27.4038 -29.8223,1.9608 c -37.7516,2.4822 -115.4186,2.7816 -132.4776,0.5106 -34.8971,-4.6457 -66.2942,-18.848 -80.3351,-36.3392 -6.0921,-7.5892 -12.1493,-19.9776 -14.2787,-29.2033 -1.581,-6.8502 -1.731,-16.3379 -1.731,-109.5 0,-95.2596 0.1207,-102.5146 1.8264,-109.7869 6.7204,-28.652 30.2937,-48.9491 68.1736,-58.6987 25.6014,-6.5894 24.2255,-6.5144 119.5,-6.5144 86.3075,0 86.5288,0.01 99.4406,2.3376 42.9157,7.7525 69.0283,23.0279 81.0105,47.3896 7.9496,16.1628 7.6403,10.6915 7.3108,129.2984 -0.2696,97.0763 -0.425,105.4258 -2.0653,110.9744 -5.7689,19.5147 -16.3075,31.8336 -35.3034,41.2674 l -7.1068,3.5295 7.2615,6.6015 c 3.9939,3.6309 20.5506,18.5266 36.7928,33.1016 16.2421,14.575 29.56,26.8375 29.5952,27.25 0.035,0.4125 -19.6234,0.7227 -43.6859,0.6894 l -43.75,-0.061 z M 1949,1439.6082 c 0,-0.3915 -57.9623,-53.0228 -60.9304,-55.3264 -1.2405,-0.9628 7.7614,-1.2131 42.9304,-1.194 l 44.5,0.024 27.4112,24.9052 27.4113,24.9053 2.9444,-1.7113 c 5.1172,-2.9742 12.469,-11.8895 14.6822,-17.8048 2.0736,-5.5423 2.0881,-6.3404 1.8206,-100.2466 L 2049.5,1218.5 l -2.6502,-5.0198 c -5.4055,-10.2387 -15.7249,-17.4428 -30.3498,-21.1877 -6.4097,-1.6413 -13.0298,-1.7925 -78.5,-1.7925 -71.279,0 -71.5241,0.01 -79.2992,2.2604 -15.9464,4.6218 -25.6076,11.6419 -30.6065,22.2396 l -2.5943,5.5 -0.2856,89.1909 c -0.2466,77.0471 -0.078,90.0851 1.2377,95.7589 3.2084,13.8342 9.6447,22.061 21.9289,28.0292 12.1161,5.8865 16.483,6.3484 60.869,6.4395 21.8625,0.045 39.75,-0.095 39.75,-0.3103 z m 642.5,53.312 c -28.399,-2.7446 -49.5,-26.3692 -49.5,-55.4202 0,-31.683 23.9219,-55.5715 55.7144,-55.6367 15.6638,-0.032 28.1977,5.0024 39.4153,15.8321 21.7947,21.0411 22.3647,55.9023 1.2793,78.254 -12.1323,12.8608 -28.4291,18.7567 -46.909,16.9708 z m 14.6135,-11.9342 c 11.0189,-2.0742 23.115,-10.4007 28.5282,-19.6376 8.3775,-14.2951 8.401,-33.3617 0.059,-47.597 -3.5522,-6.0614 -11.7673,-13.435 -18.3008,-16.4261 -21.4657,-9.8273 -47.1482,-0.9794 -57.2038,19.7075 -16.2669,33.4649 11.0532,70.7046 46.9179,63.9532 z M 2575,1437.5 V 1406 h 17.7881 c 16.4606,0 18.1205,0.1679 22.2419,2.25 6.3485,3.2071 8.97,7.59 8.97,14.9968 0,9.8092 -4.34,15.6712 -12.8647,17.3761 -1.7244,0.3449 -3.1353,1.0341 -3.1353,1.5316 0,0.4974 3.5184,6.1787 7.8186,12.625 4.3002,6.4463 8.1518,12.283 8.559,12.9705 0.5608,0.9467 -0.7906,1.2468 -5.5686,1.2368 l -6.309,-0.013 -8,-13.4541 -8,-13.4541 -5.25,-0.033 L 2586,1442 v 13.5 13.5 h -5.5 -5.5 z m 31.2944,-5.5649 c 7.2026,-2.0001 8.74,-10.6001 2.6989,-15.0966 -1.9906,-1.4816 -4.5645,-1.9144 -12.5,-2.1021 l -9.9933,-0.2364 -0.2875,9.25 -0.2876,9.25 8.2876,-0.01 c 4.5581,0 9.995,-0.4797 12.0819,-1.0593 z M 1357,1464.5957 v -25.5224 l 112.25,-0.3066 112.25,-0.3065 7.9138,-2.2311 c 9.2923,-2.6197 14.5936,-5.5294 20.477,-11.2391 7.7631,-7.5337 8.0653,-8.9572 8.0653,-37.99 0,-22.5597 -0.2107,-25.9637 -1.8268,-29.5213 -2.5186,-5.5444 -11.0328,-12.9196 -17.9277,-15.5293 -12.6668,-4.7944 -17.2548,-5.1363 -79.7016,-5.9392 -57.8499,-0.7438 -63.0491,-1.0407 -80.1681,-4.5767 -41.4148,-8.5544 -70.88,-28.6739 -78.4388,-53.5596 -1.9141,-6.3017 -2.0142,-8.7327 -1.649,-40.0415 0.4299,-36.8625 0.75,-39.1765 7.2382,-52.3324 1.8987,-3.85 5.3296,-9.1699 7.6242,-11.8219 12.3632,-14.289 38.1346,-27.1103 64.8935,-32.2844 8.8485,-1.7109 18.0902,-1.8585 134.75,-2.1519 l 125.25,-0.315 v 24.9931 24.9932 l -114.25,0.4017 c -80.4251,0.2828 -116.162,0.7441 -120.7082,1.558 -11.4171,2.0441 -17.2447,4.3633 -21.6781,8.6272 -6.505,6.2564 -7.3637,10.5798 -7.3637,37.0762 0,19.3691 0.2554,23.0401 1.9949,28.6719 3.4792,11.2643 11.6215,18.3606 25.7383,22.4316 4.9964,1.4409 14.6511,1.7566 72.2668,2.3633 71.3861,0.7516 71.4657,0.7572 92.5,6.4519 23.6849,6.4123 46.5568,19.3441 57.0962,32.2823 10.681,13.1121 11.4081,16.7316 11.3864,56.6829 -0.013,24.2886 -0.3729,33.7334 -1.487,39.0399 -6.3827,30.4006 -38.3694,53.1961 -87.9956,62.7104 -10.7246,2.0561 -13.9727,2.1189 -129.75,2.5083 l -118.75,0.3994 z m 933.4478,24.3408 c -26.6437,-1.703 -51.3218,-6.687 -69.1339,-13.9622 -26.312,-10.747 -42.1078,-27.0279 -49.4821,-51.0017 l -2.2985,-7.4726 -0.2936,-138.75 -0.2936,-138.75 h 38.027 H 2245 v 132.9508 c 0,94.5443 0.3245,134.4816 1.1232,138.25 3.019,14.2433 12.0984,22.0127 30.8768,26.422 6.8724,1.6137 16.7669,1.7903 118.25,2.1101 l 110.75,0.3489 V 1464.5409 1490 l -101.75,-0.1466 c -55.9625,-0.081 -107.1735,-0.4933 -113.8022,-0.9169 z"
         id="path4" />
      <path
         style="fill:#006089"
         d="M 938,1570.5325 V 1545 l 120.25,-0.035 c 98.845,-0.029 121.6557,-0.2854 128.1472,-1.4422 16.7379,-2.9828 27.1908,-8.5627 32.2894,-17.2366 2.744,-4.6683 2.8216,-5.2104 3.1452,-21.9841 l 0.3318,-17.1978 -93.3318,-0.3846 c -90.7131,-0.3739 -93.6545,-0.4455 -104.8318,-2.5546 -30.6793,-5.7888 -53.50609,-15.9127 -68.86825,-30.5438 -11.29656,-10.7591 -17.71157,-23.2719 -18.26209,-35.6214 -0.13484,-3.025 -0.16068,-43.1875 -0.0574,-89.25 L 937,1245 h 37.5 37.5 v 83.9508 c 0,56.9111 0.3517,85.5909 1.0921,89.043 2.2498,10.4904 12.0165,18.2894 26.7209,21.3376 8.5329,1.7688 53.0383,2.3901 137.4321,1.9186 l 44.7451,-0.25 0.2549,-98.25 0.2549,-98.25 37.6172,-0.2619 37.6173,-0.2619 0.6217,3.7619 c 0.8008,4.8449 0.6251,171.2068 -0.2469,233.7619 l -0.6691,48 -2.699,7.4774 c -10.5219,29.1505 -40.9811,48.1644 -90.7603,56.6567 -9.6173,1.6407 -21.0068,1.8145 -138.2309,2.1095 L 938,1596.0651 Z m -348.01009,-77.9827 c -20.68427,-3.3988 -34.84582,-13.1945 -44.88834,-31.0498 -1.54671,-2.75 -29.4966,-64.4 -62.11086,-137 -32.61427,-72.6 -59.67937,-132.4275 -60.14469,-132.95 C 422.38071,1191.0275 422,1257.965 422,1340.3 V 1490 h -38.02396 -38.02396 l 0.27396,-157.25 0.27396,-157.25 2.14456,-6.2481 c 5.86482,-17.0871 17.15718,-25.9606 41.03641,-32.2464 46.48508,-12.2365 81.87699,-2.3245 100.57328,28.1669 2.54454,4.1499 28.92185,63.8128 60.82378,137.5776 30.98192,71.6375 56.57628,130.2372 56.87637,130.2216 0.30008,-0.016 26.3762,-57.9531 57.94693,-128.75 31.57074,-70.7969 58.93555,-131.5436 60.81069,-134.9926 10.29993,-18.9452 27.38491,-31.3611 49.23797,-35.7818 11.75011,-2.377 32.50868,-1.5416 47.05001,1.8934 31.53699,7.4499 43.52573,16.8269 48.50322,37.9368 1.25626,5.3279 1.46934,28.5462 1.482,161.4846 L 873,1490.0241 835.25,1489.762 797.5,1489.5 797,1340.2229 l -0.5,-149.2771 -54.9102,122.2771 c -30.20062,67.2524 -58.47167,129.6777 -62.82456,138.7229 -7.36477,15.3037 -8.44734,16.9769 -15.58979,24.0954 -8.42459,8.3963 -16.08677,12.7441 -27.26365,15.4706 -9.12278,2.2254 -35.11985,2.813 -45.92189,1.038 z M 2633.3398,1240.1661 c -2.6619,-2.1086 -5.5148,-4.6631 -6.3398,-5.6765 -2.0212,-2.4829 -31.4516,-24.4893 -41.7892,-31.2476 -4.5591,-2.9806 -16.2591,-9.2448 -26,-13.9205 -35.9802,-17.2708 -39.8928,-19.2642 -48.6506,-24.7869 -14.4593,-9.1181 -38.561,-27.7116 -45.4063,-35.0292 -11.2304,-12.0054 -20.0438,-24.9553 -24.164,-35.5054 -1.1814,-3.025 -2.8279,-6.2553 -3.6591,-7.1783 -0.849,-0.943 -1.2475,-2.509 -0.9094,-3.574 1.4276,-4.4981 6.1703,-7.0207 25.5786,-13.605 21.4864,-7.2893 31.1141,-9.7558 47.2983,-12.1174 13.3262,-1.9447 47.0644,-3.63 56.6233,-2.8287 3.8931,0.3264 7.0784,0.2302 7.0784,-0.2137 0,-0.444 -1.1087,-2.6991 -2.4639,-5.0114 -2.7947,-4.769 -12.2265,-12.2833 -27.0361,-21.5399 -5.5,-3.4378 -17.5236,-11.5848 -26.7191,-18.1045 -19.0394,-13.4991 -40.381,-27.5973 -46.2809,-30.57298 -6.0034,-3.02785 -32.2249,-12.54571 -57.1492,-20.74394 -32.8802,-10.81514 -35.6014,-12.60718 -47.053,-30.98715 -8.5103,-13.65912 -16.0834,-28.60465 -27.6273,-54.52303 -5.7568,-12.925 -16.1966,-35.425 -23.1996,-50 -16.601,-34.55057 -21.5245,-45.61467 -27.5826,-61.98303 -5.9399,-16.04887 -11.2152,-27.12275 -20.9369,-43.95072 C 2251.2819,689.9427 2230.662,660.72182 2210.4522,637 c -13.2628,-15.56755 -44.1705,-46.22826 -59.406,-58.93127 -43.4108,-36.19495 -89.0838,-63.28937 -129.9628,-77.0974 -12.3293,-4.16459 -16.4382,-5.08157 -26.5834,-5.93268 -6.6,-0.55369 -17.625,-1.52392 -24.5,-2.15608 -6.875,-0.63215 -16.325,-1.4351 -21,-1.78433 -10.0982,-0.75435 -11.6785,-1.53394 -23.5,-11.59308 -14.3144,-12.18038 -39.3886,-26.14021 -66.5,-37.02328 -26.0262,-10.44744 -39.8767,-9.98733 -45.8226,1.52224 -1.9154,3.70774 -2.2352,5.54312 -1.8245,10.46983 0.6778,8.12932 9.1868,25.00688 18.6671,37.02605 12.3058,15.60127 26.4845,34.63645 33.5191,45 11.0489,16.27749 17.3184,30.54254 28.5675,65 14.3778,44.04091 16.3354,49.40841 23.4479,64.29261 8.1971,17.15406 17.1539,30.58108 27.4882,41.20739 17.1798,17.66517 17.4917,25.8738 2.4872,65.4655 -6.0772,16.0357 -9.4783,28.5841 -12.206,45.0345 -2.8076,16.93251 -2.5609,62.2381 0.4329,79.5 3.0624,17.65741 6.3143,29.77739 11.6535,43.4322 8.9939,23.00202 16.072,33.71222 25.4367,38.48974 4.6457,2.37004 7.4798,2.63462 8.8702,0.82806 0.5291,-0.6875 1.9582,-10.45847 3.1759,-21.71326 5.5579,-51.37387 10.1291,-65.14294 30.1545,-90.83011 9.3033,-11.93364 11.3839,-14.09343 12.6023,-13.08225 2.1747,1.80485 3.3344,4.3592 5.4574,12.02018 4.6634,16.82852 27.3286,64.57192 46.7168,98.40729 31.5051,54.98115 55.9532,87.61345 85.2037,113.72615 l 6.4722,5.7779 -6.466,-3.1514 c -4.8232,-2.3507 -9.5235,-6.1299 -18.5,-14.8745 -6.6187,-6.4477 -18.334,-16.8086 -26.034,-23.0243 -17.6622,-14.2573 -47.6662,-44.27301 -57.8461,-57.86854 -5.9327,-7.9232 -10.8238,-16.48808 -20.7758,-36.38084 -7.8776,-15.74621 -13.3779,-25.65653 -13.932,-25.10241 -1.224,1.22399 -5.1016,22.8126 -8.4614,47.10838 -3.4465,24.9235 -10.1367,35.83321 -25.101,40.93201 -7.532,2.5664 -19.3654,1.4165 -27.3837,-2.661 -12.9405,-6.5805 -29.139,-26.39277 -39.5528,-48.37667 C 1903.0214,913.31535 1898.7075,845.35145 1914.4881,788 c 1.8917,-6.875 4.8036,-18.575 6.471,-26 1.7032,-7.58441 4.364,-16.21499 6.0723,-19.6959 2.8652,-5.83834 2.9588,-6.39186 1.6217,-9.59184 -0.7804,-1.86778 -4.1098,-6.05463 -7.3987,-9.30411 -3.2889,-3.24948 -8.5934,-9.95815 -11.7879,-14.90815 -7.0222,-10.88132 -19.9388,-35.65319 -25.0282,-48 -6.3404,-15.38165 -20.3198,-55.2689 -24.977,-71.26652 -7.0238,-24.12701 -8.125,-25.89108 -51.9572,-83.23256 -26.2058,-34.28261 -30.1815,-60.37557 -12.8294,-84.20181 10.4269,-14.31727 29.8559,-20.26013 53.4231,-16.34086 29.5886,4.92063 71.5747,24.71715 95.2312,44.90172 11.947,10.19362 11.8668,10.16829 36.671,11.58464 20.1546,1.15086 22.7544,1.53284 41.5466,6.10441 38.2916,9.31521 48.3183,13.91805 90.943,41.748 79.5722,51.95326 131.7075,104.44778 181.5466,182.79739 12.1339,19.0751 16.9311,28.80117 28.8163,58.42354 12.0567,30.04991 26.054,60.69173 51.3822,112.48205 20.5175,41.95369 26.6619,52.9128 31.7653,56.6565 1.375,1.00866 7,3.5838 12.5,5.72253 13.652,5.30871 49.3219,21.32002 58.5,26.25918 20.6546,11.11513 59.9136,39.40965 94.5,68.10749 13.4331,11.146 16.9573,14.7377 25.7607,26.2543 3.3634,4.4 8.0901,10.3388 10.5038,13.1973 6.5844,7.7981 5.998,8.9681 -6.2645,12.4988 -19.0138,5.4745 -30.0726,7.7269 -48.0007,9.7767 -10.3346,1.1815 -22.8979,3.3359 -29.5,5.0586 -10.7369,2.8016 -30.6315,7.5699 -35.7587,8.5705 l -2.2594,0.4409 2.0527,4.0237 c 4.8907,9.5865 16.7826,19.5097 40.1753,33.5245 8.9599,5.3679 19.4408,11.8698 23.2908,14.4485 17.0522,11.4216 40.9432,33.1939 54.8222,49.9605 3.8699,4.675 11.4193,13 16.7765,18.5 7.8642,8.0738 10.2542,11.2521 12.4075,16.5 1.467,3.575 3.3135,7.5125 4.1035,8.75 2.3159,3.6278 -0.6304,2.8835 -6.2699,-1.5839 z m -652.122,-650.8976 c -5.4589,-11.25975 -8.5529,-16.31279 -13.0226,-21.2685 -8.4691,-9.38976 -13.4177,-16.70065 -11.7401,-17.34438 0.7413,-0.28449 5.8361,-1.06121 11.3216,-1.72605 l 9.9736,-1.20879 6.3749,4.55316 c 8.1629,5.83026 9.9251,7.79804 14.1221,15.76911 3.311,6.28862 3.4135,6.80484 2.6345,13.27511 -1.0262,8.52442 -3.5793,14.17002 -8.5698,18.95034 l -3.9342,3.76851 z"
         id="path3" />
    </g>
  </g>
</svg>
