<?xml version="1.0" encoding="UTF-8" standalone="no"?>
<!-- Created with Inkscape (http://www.inkscape.org/) -->

<svg
   version="1.1"
   id="svg1"
   width="1280"
   height="720"
   viewBox="0 0 1280 720"
   xmlns="http://www.w3.org/2000/svg"
   xmlns:svg="http://www.w3.org/2000/svg">
  <defs
     id="defs1" />
  <g
     id="g1">
    <g
       id="g2">
      <path
         style="fill:#40b782"
         d="m 634.84211,612.75 c -2.33537,-3.9875 -5.87902,-10.175 -7.87479,-13.75 -1.99577,-3.575 -8.47599,-14.825 -14.40048,-25 -5.92449,-10.175 -14.39305,-24.8 -18.81902,-32.5 -4.42596,-7.7 -9.283,-16.025 -10.79342,-18.5 -1.51042,-2.475 -5.34003,-9 -8.51025,-14.5 -3.17022,-5.5 -7.20287,-12.475 -8.96145,-15.5 -1.75858,-3.025 -8.27244,-14.275 -14.47525,-25 -6.2028,-10.725 -15.44272,-26.7 -20.53316,-35.5 -5.09043,-8.8 -14.8503,-25.675 -21.68858,-37.5 -6.83829,-11.825 -16.61865,-28.7 -21.73413,-37.5 -5.11549,-8.8 -10.98802,-18.925 -13.05008,-22.5 -2.06206,-3.575 -6.77772,-11.675 -10.47924,-18 -17.68156,-30.21346 -33.47614,-57.44937 -45.52353,-78.5 -5.66583,-9.9 -13.32466,-23.175 -17.01962,-29.5 -3.69497,-6.325 -10.23368,-17.575 -14.53047,-25 -4.29679,-7.425 -11.48406,-19.8 -15.97172,-27.5 -16.97354,-29.12349 -30.25161,-52.07962 -31.37877,-54.25 l -1.16852,-2.25 59.78519,0.0131 59.78518,0.0131 38.5,66.20237 c 21.175,36.4113 42.15056,72.5179 46.61235,80.23687 11.80059,20.41524 67.75831,116.64498 73.28922,126.03451 2.59183,4.4 8.94421,15.29256 14.1164,24.20569 5.17219,8.91312 9.4898,16.11312 9.59467,16 0.10487,-0.11313 40.54558,-70.18069 89.86824,-155.70569 49.32265,-85.525 90.00545,-155.84105 90.40622,-156.25788 0.40077,-0.41684 27.81578,-0.64184 60.92226,-0.5 l 60.1936,0.25788 -4.92035,8.5 c -2.70619,4.675 -9.24247,15.925 -14.52506,25 -5.2826,9.075 -15.97191,27.525 -23.75402,41 -35.0861,60.75277 -45.52813,78.75875 -61.76149,106.5 -2.57475,4.4 -8.30766,14.3 -12.7398,22 -13.12901,22.8092 -34.11928,59.12097 -41.62009,72 -13.37411,22.9636 -20.4137,35.06146 -26.18493,45 -3.19381,5.5 -7.24953,12.475 -9.01271,15.5 -13.65029,23.41905 -20.01124,34.41035 -60.76629,105 -7.14473,12.375 -14.21213,24.525 -15.70535,27 -1.49321,2.475 -8.90282,15.1875 -16.46579,28.25 -7.56297,13.0625 -13.91016,23.75 -14.10486,23.75 -0.1947,0 -2.26475,-3.2625 -4.60011,-7.25 z m 3.08681,-393.89264 c -1.12424,-2.10946 -1.08947,-2.21972 0.33072,-1.04852 1.37584,1.13463 1.9427,0.70204 4.25874,-3.25 1.46942,-2.50736 2.89666,-4.55884 3.17166,-4.55884 0.52231,0 -4.38237,8.86501 -5.73035,10.35736 -0.42592,0.47155 -1.33977,-0.20345 -2.03077,-1.5 z M 634.5,213 c -0.85325,-1.65 -1.32636,-3 -1.05136,-3 0.275,0 1.19811,1.35 2.05136,3 0.85325,1.65 1.32636,3 1.05136,3 -0.275,0 -1.19811,-1.35 -2.05136,-3 z m -3.62043,-6.25 c -0.65493,-1.2375 -1.84323,-3.375 -2.64067,-4.75 -1.39092,-2.39833 -1.38149,-2.41867 0.23182,-0.5 1.99311,2.37035 4.79058,7.5 4.09014,7.5 -0.26977,0 -1.02635,-1.0125 -1.68129,-2.25 z m 18.06805,-3.25 c 1.79987,-3.3 3.74048,-6.45 4.31247,-7 0.57199,-0.55 -0.44505,1.7 -2.26009,5 -1.81504,3.3 -3.75565,6.45 -4.31247,7 -0.55681,0.55 0.46023,-1.7 2.26009,-5 z M 656,191 c 1.12236,-2.2 2.26565,-4 2.54065,-4 0.275,0 -0.41829,1.8 -1.54065,4 -1.12236,2.2 -2.26565,4 -2.54065,4 -0.275,0 0.41829,-1.8 1.54065,-4 z m -35,-1 c -0.5887,-1.1 -0.84537,-2 -0.57037,-2 0.275,0 0.98167,0.9 1.57037,2 0.5887,1.1 0.84537,2 0.57037,2 -0.275,0 -0.98167,-0.9 -1.57037,-2 z m -3,-5 c -0.5887,-1.1 -0.84537,-2 -0.57037,-2 0.275,0 0.98167,0.9 1.57037,2 0.5887,1.1 0.84537,2 0.57037,2 -0.275,0 -0.98167,-0.9 -1.57037,-2 z m 42,-1 c 0.5887,-1.1 1.29537,-2 1.57037,-2 0.275,0 0.0183,0.9 -0.57037,2 -0.5887,1.1 -1.29537,2 -1.57037,2 -0.275,0 -0.0183,-0.9 0.57037,-2 z m -45.5,-5 c -0.85325,-1.65 -1.32636,-3 -1.05136,-3 0.275,0 1.19811,1.35 2.05136,3 0.85325,1.65 1.32636,3 1.05136,3 -0.275,0 -1.19811,-1.35 -2.05136,-3 z m 50.44762,-3.5 c 1.79987,-3.3 3.74048,-6.45 4.31247,-7 0.57199,-0.55 -0.44505,1.7 -2.26009,5 -1.81504,3.3 -3.75565,6.45 -4.31247,7 -0.55681,0.55 0.46023,-1.7 2.26009,-5 z M 611,173 c -0.5887,-1.1 -0.84537,-2 -0.57037,-2 0.275,0 0.98167,0.9 1.57037,2 0.5887,1.1 0.84537,2 0.57037,2 -0.275,0 -0.98167,-0.9 -1.57037,-2 z m -3.5,-6 c -0.85325,-1.65 -1.32636,-3 -1.05136,-3 0.275,0 1.19811,1.35 2.05136,3 0.85325,1.65 1.32636,3 1.05136,3 -0.275,0 -1.19811,-1.35 -2.05136,-3 z m 64,-3 c 0.85325,-1.65 1.77636,-3 2.05136,-3 0.275,0 -0.19811,1.35 -1.05136,3 -0.85325,1.65 -1.77636,3 -2.05136,3 -0.275,0 0.19811,-1.35 1.05136,-3 z m -69.07043,-5.75 c -1.51826,-2.6125 -3.41442,-5.875 -4.21369,-7.25 l -1.45322,-2.5 1.86867,2.24866 c 2.18391,2.62801 7.69915,12.25134 7.02138,12.25134 -0.25447,0 -1.70488,-2.1375 -3.22314,-4.75 z M 675,158 c 0.5887,-1.1 1.29537,-2 1.57037,-2 0.275,0 0.0183,0.9 -0.57037,2 -0.5887,1.1 -1.29537,2 -1.57037,2 -0.275,0 -0.0183,-0.9 0.57037,-2 z m 3.10842,-5.25 c 3.25341,-6.20988 10.12815,-17.75 10.57412,-17.75 0.27913,0 -0.60301,1.9125 -1.96031,4.25 -1.35729,2.3375 -3.91801,6.8375 -5.69048,10 -3.04984,5.44163 -5.43948,8.30267 -2.92333,3.5 z M 594.5,145 c -0.85325,-1.65 -1.32636,-3 -1.05136,-3 0.275,0 1.19811,1.35 2.05136,3 0.85325,1.65 1.32636,3 1.05136,3 -0.275,0 -1.19811,-1.35 -2.05136,-3 z m -3.5,-6 c -0.5887,-1.1 -0.84537,-2 -0.57037,-2 0.275,0 0.98167,0.9 1.57037,2 0.5887,1.1 0.84537,2 0.57037,2 -0.275,0 -0.98167,-0.9 -1.57037,-2 z m -3.5,-6 c -0.85325,-1.65 -1.32636,-3 -1.05136,-3 0.275,0 1.19811,1.35 2.05136,3 0.85325,1.65 1.32636,3 1.05136,3 -0.275,0 -1.19811,-1.35 -2.05136,-3 z m 103,-2 c 0.85325,-1.65 1.77636,-3 2.05136,-3 0.275,0 -0.19811,1.35 -1.05136,3 -0.85325,1.65 -1.77636,3 -2.05136,3 -0.275,0 0.19811,-1.35 1.05136,-3 z M 584,127 c -0.5887,-1.1 -0.84537,-2 -0.57037,-2 0.275,0 0.98167,0.9 1.57037,2 0.5887,1.1 0.84537,2 0.57037,2 -0.275,0 -0.98167,-0.9 -1.57037,-2 z m 110.5,-3 c 0.85325,-1.65 1.77636,-3 2.05136,-3 0.275,0 -0.19811,1.35 -1.05136,3 -0.85325,1.65 -1.77636,3 -2.05136,3 -0.275,0 0.19811,-1.35 1.05136,-3 z m -114,-3 c -0.85325,-1.65 -1.32636,-3 -1.05136,-3 0.275,0 1.19811,1.35 2.05136,3 0.85325,1.65 1.32636,3 1.05136,3 -0.275,0 -1.19811,-1.35 -2.05136,-3 z M 698,118 c 0.5887,-1.1 1.29537,-2 1.57037,-2 0.275,0 0.0183,0.9 -0.57037,2 -0.5887,1.1 -1.29537,2 -1.57037,2 -0.275,0 -0.0183,-0.9 0.57037,-2 z m -121,-3 c -0.5887,-1.1 -0.84537,-2 -0.57037,-2 0.275,0 0.98167,0.9 1.57037,2 0.5887,1.1 0.84537,2 0.57037,2 -0.275,0 -0.98167,-0.9 -1.57037,-2 z m 125.46838,-4.5 c 1.53863,-2.75 3.26174,-5.45 3.82914,-6 0.56739,-0.55 -0.22726,1.25 -1.7659,4 -1.53863,2.75 -3.26174,5.45 -3.82914,6 -0.56739,0.55 0.22726,-1.25 1.7659,-4 z M 573.5,109 c -0.85325,-1.65 -1.32636,-3 -1.05136,-3 0.275,0 1.19811,1.35 2.05136,3 0.85325,1.65 1.32636,3 1.05136,3 -0.275,0 -1.19811,-1.35 -2.05136,-3 z m -3.98872,-6.62312 c -0.9453,-1.44272 -1.22448,-2.31766 -0.62038,-1.94431 1.15439,0.71346 3.48267,4.56743 2.75929,4.56743 -0.23109,0 -1.1936,-1.18041 -2.13891,-2.62312 z"
         id="path3" />
      <path
         style="fill:#34485d"
         d="M 630.02555,396.7187 C 624.84919,387.79841 618.49383,376.9 615.90254,372.5 613.31125,368.1 598.26906,342.225 582.47546,315 566.68186,287.775 552.27694,263.025 550.46454,260 542.2127,246.22721 458,100.96342 458,100.50208 c 0,-0.28546 24.85908,-0.4027 55.2424,-0.26055 l 55.24239,0.25847 5.61956,9.5 c 3.09075,5.225 18.7984,32 34.9059,59.5 16.10749,27.5 29.61552,50.37341 30.01785,50.8298 0.40232,0.45639 4.9218,-6.51861 10.04328,-15.5 5.12148,-8.98139 19.43343,-33.8798 31.80433,-55.3298 12.37089,-21.45 23.79348,-41.3625 25.38352,-44.25 l 2.89099,-5.25 h 55.50645 55.50645 l -1.96445,3.25 c -1.08044,1.7875 -40.99446,70.975 -88.69781,153.75 -47.70335,82.775 -87.4827,151.72341 -88.39855,153.2187 l -1.6652,2.71869 z"
         id="path2" />
    </g>
  </g>
</svg>
